# xmcd
#
# Track frame offsets: 
#        150
#        12031
#        23294
#        33486
#        45428
#        56885
#        67416
#        82552
#        91492
#        102141
#        111656
#        121468
#        133468
#        142291
#        152427
#        162372
#        171581
#        181166
#        192447
#        201473
#        211355
#        222642
#        232678
#        242197
#        255653
#
# Disc length: 3618 seconds
#
# Revision: 0
# Processed by: cddbd v1.5.2PL0 Copyright (c) Steve Scherf et al.
# Submitted via: ExactAudioCopyFreeDBPlugin 1.0
#
DISCID=710e2019
DTITLE=Various Artist - Country Guitar Revisited [CD1]
DYEAR=2018
DGENRE=Country
TTITLE0=Jim Ed, Maxine And Bonnie Brown - I Heard The Bluebirds Sing
TTITLE1=Jim Reeves - Anna Marie
TTITLE2=Skeeter Davis - Lost To A Geisha Girl
TTITLE3=Hank Snow - Unfaithful
TTITLE4=Don Gibson - Oh Lonesome Me
TTITLE5=Hank Locklin - Blue Grass Skirt
TTITLE6=Hank Snow - Nobody's Child
TTITLE7=Johnnie and Jack - Lonely Island Pearl
TTITLE8=Eddy Arnold - Real Love
TTITLE9=Porter Wagoner - Tell Her Lies And Feed Her Candy
TTITLE10=The Browns - The Trot
TTITLE11=Skeeter Davis - I Forgot More That You'll Ever Know
TTITLE12=Hank Snow - A Woman Captured Me
TTITLE13=Eddy Arnold - Chip Off The Old Block
TTITLE14=The Browns - This Time I Would Know
TTITLE15=Porter Wagoner - Me And Fred And Joe And Bill
TTITLE16=Johnnie and Jack - That's The Way The Cookie Crumbles
TTITLE17=Hank Snow - Doggone That Train
TTITLE18=Jim Reeves - Home
TTITLE19=Hawkshaw Hawkins - She Was Here
TTITLE20=Hank Snow - A Fool Such As I
TTITLE21=Don Gibson - Lonesome Old House
TTITLE22=Jim Reeves - Billy Bayou
TTITLE23=Hank Snow - I Don't Hurt Anymore
TTITLE24=Jimmie Driftwood - The Battle Of New Orleans
EXTD=
EXTT0=
EXTT1=
EXTT2=
EXTT3=
EXTT4=
EXTT5=
EXTT6=
EXTT7=
EXTT8=
EXTT9=
EXTT10=
EXTT11=
EXTT12=
EXTT13=
EXTT14=
EXTT15=
EXTT16=
EXTT17=
EXTT18=
EXTT19=
EXTT20=
EXTT21=
EXTT22=
EXTT23=
EXTT24=
PLAYORDER=
